<svg xmlns="http://www.w3.org/2000/svg">
    <symbol id="menu-dots" viewBox="0 0 24 24" fill="none"><!-- stroke -->
        <path d="M11.9961 18H12.0051M18 18H18.009M6 18H6.00898M11.9961 12H12.0051M12 6H12.009M18 12H18.009M18 6H18.009M6 12H6.00898M6 6H6.00898" stroke="black" stroke-width="2.5" stroke-linecap="round" stroke-linejoin="round"/>
    </symbol>
    <symbol id="play" viewBox="0 0 17 20" fill="none"><!-- fill -->
        <path d="M0.5 0.400024L16.5 10L0.5 19.6V0.400024Z" />
    </symbol>
    <symbol id="explore-ufo" viewBox="0 0 25 24" fill="none"><!-- fill -->
        <path d="M6.57743 7.8996L5.84009 7.76239L5.84009 7.7624L6.57743 7.8996ZM6.6089 8.90532L5.9454 9.25498L5.94541 9.25501L6.6089 8.90532ZM7.45646 9.51763L7.76179 8.83259L7.76177 8.83259L7.45646 9.51763ZM17.5435 9.51763L17.2382 8.83257L17.2382 8.8326L17.5435 9.51763ZM18.3911 8.90532L19.0546 9.25504L19.0546 9.25503L18.3911 8.90532ZM18.4226 7.8996L19.16 7.76244L19.1599 7.76237L18.4226 7.8996ZM13.25 18C13.25 17.5858 12.9142 17.25 12.5 17.25C12.0858 17.25 11.75 17.5858 11.75 18H13.25ZM11.75 21C11.75 21.4142 12.0858 21.75 12.5 21.75C12.9142 21.75 13.25 21.4142 13.25 21H11.75ZM18.2276 16.8181C18.1271 16.4163 17.7199 16.1719 17.3181 16.2724C16.9163 16.3729 16.6719 16.7801 16.7724 17.1819L18.2276 16.8181ZM17.7724 21.1819C17.8729 21.5837 18.2801 21.8281 18.6819 21.7276C19.0837 21.6271 19.3281 21.2199 19.2276 20.8181L17.7724 21.1819ZM8.22761 17.1819C8.32807 16.7801 8.08375 16.3729 7.6819 16.2724C7.28006 16.1719 6.87285 16.4163 6.77239 16.8181L8.22761 17.1819ZM5.77239 20.8181C5.67193 21.2199 5.91625 21.6271 6.3181 21.7276C6.71994 21.8281 7.12715 21.5837 7.22761 21.1819L5.77239 20.8181ZM12.5 2.25C9.18479 2.25 6.4242 4.62347 5.84009 7.76239L7.31477 8.03681C7.76834 5.59941 9.91637 3.75 12.5 3.75V2.25ZM5.84009 7.7624C5.76048 8.19021 5.64459 8.68418 5.9454 9.25498L7.2724 8.55566C7.25748 8.52733 7.25399 8.51383 7.253 8.50972C7.25205 8.50574 7.24977 8.49532 7.25002 8.46948C7.2503 8.44014 7.25373 8.39538 7.26484 8.32081C7.27619 8.24469 7.2924 8.15704 7.31477 8.0368L5.84009 7.7624ZM5.94541 9.25501C6.24749 9.82817 6.73916 10.0191 7.15115 10.2027L7.76177 8.83259C7.5128 8.72162 7.40727 8.67207 7.33649 8.6251C7.31057 8.6079 7.30108 8.59817 7.29752 8.5943C7.29427 8.59076 7.28584 8.58116 7.27239 8.55563L5.94541 9.25501ZM7.15113 10.2027C8.63812 10.8654 10.4988 11.25 12.5 11.25V9.75C10.6806 9.75 9.03206 9.39877 7.76179 8.83259L7.15113 10.2027ZM12.5 11.25C14.5012 11.25 16.3619 10.8654 17.8488 10.2027L17.2382 8.8326C15.9679 9.39877 14.3194 9.75 12.5 9.75V11.25ZM17.8488 10.2027C18.2609 10.019 18.7525 9.82817 19.0546 9.25504L17.7276 8.5556C17.7142 8.58115 17.7057 8.59076 17.7025 8.59431C17.6989 8.59818 17.6894 8.60791 17.6635 8.6251C17.5927 8.67206 17.4872 8.72161 17.2382 8.83257L17.8488 10.2027ZM19.0546 9.25503C19.3555 8.68421 19.2395 8.19015 19.16 7.76244L17.6852 8.03676C17.7076 8.15701 17.7238 8.24466 17.7352 8.3208C17.7463 8.39538 17.7497 8.44014 17.75 8.46948C17.7502 8.49532 17.748 8.50573 17.747 8.5097C17.746 8.5138 17.7425 8.52729 17.7276 8.55561L19.0546 9.25503ZM19.1599 7.76237C18.5758 4.62347 15.8152 2.25 12.5 2.25V3.75C15.0836 3.75 17.2316 5.59941 17.6853 8.03683L19.1599 7.76237ZM17.3089 6.22525C18.742 6.60282 19.8901 7.1326 20.6623 7.72926C21.4406 8.33064 21.75 8.92496 21.75 9.44533H23.25C23.25 8.27983 22.5539 7.29524 21.5794 6.54231C20.5989 5.78465 19.247 5.1847 17.6911 4.77475L17.3089 6.22525ZM21.75 9.44533C21.75 10.2289 21.0188 11.1824 19.2602 11.9834C17.5687 12.7538 15.1794 13.25 12.5 13.25V14.75C15.3434 14.75 17.9541 14.2266 19.8819 13.3485C21.7426 12.501 23.25 11.1772 23.25 9.44533H21.75ZM12.5 13.25C9.82062 13.25 7.43124 12.7538 5.7398 11.9834C3.9812 11.1824 3.25 10.2289 3.25 9.44533H1.75C1.75 11.1772 3.25737 12.501 5.11806 13.3485C7.04591 14.2266 9.65653 14.75 12.5 14.75V13.25ZM3.25 9.44533C3.25 8.92496 3.55938 8.33064 4.33769 7.72926C5.10988 7.1326 6.25801 6.60282 7.69108 6.22525L7.30892 4.77475C5.75298 5.1847 4.40111 5.78465 3.42055 6.54231C2.44611 7.29524 1.75 8.27983 1.75 9.44533H3.25ZM11.75 18V21H13.25V18H11.75ZM16.7724 17.1819L17.7724 21.1819L19.2276 20.8181L18.2276 16.8181L16.7724 17.1819ZM6.77239 16.8181L5.77239 20.8181L7.22761 21.1819L8.22761 17.1819L6.77239 16.8181Z" />
    </symbol>
    <symbol id="favorites" viewBox="0 0 24 24" fill="none"><!-- stroke -->
        <path d="M13.7276 3.44418L15.4874 6.99288C15.7274 7.48687 16.3673 7.9607 16.9073 8.05143L20.0969 8.58575C22.1367 8.92853 22.6167 10.4206 21.1468 11.8925L18.6671 14.3927C18.2471 14.8161 18.0172 15.6327 18.1471 16.2175L18.8571 19.3125C19.417 21.7623 18.1271 22.71 15.9774 21.4296L12.9877 19.6452C12.4478 19.3226 11.5579 19.3226 11.0079 19.6452L8.01827 21.4296C5.8785 22.71 4.57865 21.7522 5.13859 19.3125L5.84851 16.2175C5.97849 15.6327 5.74852 14.8161 5.32856 14.3927L2.84884 11.8925C1.389 10.4206 1.85895 8.92853 3.89872 8.58575L7.08837 8.05143C7.61831 7.9607 8.25824 7.48687 8.49821 6.99288L10.258 3.44418C11.2179 1.51861 12.7777 1.51861 13.7276 3.44418Z" stroke-width="1.5" stroke-linecap="round" stroke-linejoin="round"/>
    </symbol>
    <symbol id="happy" viewBox="0 0 24 24" fill="none">
        <path d="M7 9C7.20949 9.5826 7.77476 10 8.43922 10C9.10367 10 9.66894 9.5826 9.87843 9M14.1216 9C14.3311 9.5826 14.8963 10 15.5608 10C16.2252 10 16.7905 9.5826 17 9M8 15C8.91212 16.2144 10.3643 17 12 17C13.6357 17 15.0879 16.2144 16 15M22 12C22 17.5228 17.5228 22 12 22C6.47715 22 2 17.5228 2 12C2 6.47715 6.47715 2 12 2C17.5228 2 22 6.47715 22 12Z" stroke="black" stroke-width="1.5" stroke-linecap="round" stroke-linejoin="round"/>
    </symbol>
    <symbol id="plus" viewBox="0 0 25 24" fill="none">
        <path d="M12.5 4V20M20.5 12H4.5" stroke="white" stroke-width="1.5" stroke-linecap="round" stroke-linejoin="round"/>
    </symbol>
    <symbol id="search" viewBox="0 0 25 24" fill="none">
        <path d="M18.125 17.5L22.625 22L18.125 17.5Z" fill="#EFEFEF"/>
        <path d="M20.625 11C20.625 6.02944 16.5956 2 11.625 2C6.65444 2 2.625 6.02944 2.625 11C2.625 15.9706 6.65444 20 11.625 20C16.5956 20 20.625 15.9706 20.625 11Z" fill="#EFEFEF"/>
        <path d="M18.125 17.5L22.625 22M20.625 11C20.625 6.02944 16.5956 2 11.625 2C6.65444 2 2.625 6.02944 2.625 11C2.625 15.9706 6.65444 20 11.625 20C16.5956 20 20.625 15.9706 20.625 11Z" stroke="black" stroke-width="1.5" stroke-linecap="round" stroke-linejoin="round"/>
    </symbol>
    <symbol id="search-icon" viewBox="0 0 24 24" fill="none">
        <path d="M17.5 17.5L22 22M20 11C20 6.02944 15.9706 2 11 2C6.02944 2 2 6.02944 2 11C2 15.9706 6.02944 20 11 20C15.9706 20 20 15.9706 20 11Z" stroke="black" stroke-width="1.5" stroke-linecap="round" stroke-linejoin="round"/>
    </symbol>
    <symbol id="chevron-left" viewBox="0 0 24 24" fill="none"><!-- stroke -->
        <path d="M15 6C15 6 9.00001 10.4189 9 12C8.99999 13.5812 15 18 15 18" stroke="black" stroke-width="1.5" stroke-linecap="round" stroke-linejoin="round"/>
    </symbol>
    <symbol id="chevron-right" viewBox="0 0 6 9" fill="none">
        <path d="M1 0.5L5 4.5L1 8.5" stroke="black"/>
    </symbol>
    <symbol id="chevron-down" viewBox="0 0 24 24" fill="none">
        <path d="M6 9L12 15L18 9" stroke="black" stroke-linecap="square"/>
    </symbol>
    <symbol id="cancel" viewBox="0 0 6 9" fill="none">
        <path d="M1 0.5L5 4.5L1 8.5" stroke="black"/>
    </symbol>
    <symbol id="dots" viewBox="0 0 24 24" fill="none">
        <path d="M11.9958 18H11.9959M11.9958 12H11.9959M11.9959 6H11.9959" stroke="black" stroke-width="2.5" stroke-linecap="round" stroke-linejoin="round"/>
    </symbol>
    <symbol id="plus" viewBox="0 0 25 24" fill="none">
        <path d="M12.5 4V20M20.5 12H4.5" stroke="black" stroke-width="1.5" stroke-linecap="round" stroke-linejoin="round"/>
    </symbol>
    <symbol id="call" viewBox="0 0 24 24" fill="none"><!-- stroke -->
        <path d="M3.77762 11.9424C2.8296 10.2893 2.37185 8.93948 2.09584 7.57121C1.68762 5.54758 2.62181 3.57081 4.16938 2.30947C4.82345 1.77638 5.57323 1.95852 5.96 2.6524L6.83318 4.21891C7.52529 5.46057 7.87134 6.08139 7.8027 6.73959C7.73407 7.39779 7.26737 7.93386 6.33397 9.00601L3.77762 11.9424ZM3.77762 11.9424C5.69651 15.2883 8.70784 18.3013 12.0576 20.2224M12.0576 20.2224C13.7107 21.1704 15.0605 21.6282 16.4288 21.9042C18.4524 22.3124 20.4292 21.3782 21.6905 19.8306C22.2236 19.1766 22.0415 18.4268 21.3476 18.04L19.7811 17.1668C18.5394 16.4747 17.9186 16.1287 17.2604 16.1973C16.6022 16.2659 16.0661 16.7326 14.994 17.666L12.0576 20.2224ZM14 6.83185C15.4232 7.43624 16.5638 8.57677 17.1682 10M14.654 2C18.1912 3.02076 20.9791 5.80852 22 9.34563" stroke-width="1.5" stroke-linecap="round" stroke-linejoin="round"/>
    </symbol>
    <symbol id="no" viewBox="0 0 33 32" fill="none">
        <path d="M25.8342 6.66699L7.16748 25.3337M7.16748 6.66699L25.8342 25.3337" stroke="black" stroke-width="1.5" stroke-linecap="round" stroke-linejoin="round"/>
    </symbol>
    <symbol id="like" viewBox="0 0 33 32" fill="none">
        <path d="M17.1296 3.43176C17.5434 3.45212 17.8952 3.13325 17.9156 2.71953C17.936 2.30582 17.6171 1.95393 17.2034 1.93357L17.1296 3.43176ZM30.1395 12.4794C30.0363 12.0782 29.6274 11.8367 29.2263 11.94C28.8251 12.0432 28.5836 12.4521 28.6868 12.8532L30.1395 12.4794ZM11.7662 19.5492C11.5174 19.218 11.0473 19.1512 10.7161 19.3999C10.3849 19.6487 10.3181 20.1188 10.5668 20.45L11.7662 19.5492ZM22.4329 20.45C22.6816 20.1188 22.6148 19.6487 22.2836 19.3999C21.9524 19.1512 21.4822 19.218 21.2335 19.5492L22.4329 20.45ZM13.8332 13.4163C14.2474 13.4163 14.5832 13.0805 14.5832 12.6663C14.5832 12.2521 14.2474 11.9163 13.8332 11.9163V13.4163ZM9.96951 12.8026C9.67661 13.0955 9.67661 13.5704 9.96951 13.8633C10.2624 14.1562 10.7373 14.1562 11.0302 13.8633L9.96951 12.8026ZM19.1665 11.9163C18.7523 11.9163 18.4165 12.2521 18.4165 12.6663C18.4165 13.0805 18.7523 13.4163 19.1665 13.4163V11.9163ZM21.9695 13.8633C22.2624 14.1562 22.7372 14.1562 23.0301 13.8633C23.323 13.5704 23.3231 13.0956 23.0302 12.8027L21.9695 13.8633ZM21.684 3.10785L21.3057 2.46026L21.3057 2.46026L21.684 3.10785ZM24.6838 3.14068L24.2475 3.75071L24.2476 3.75073L24.6838 3.14068ZM25.6492 3.14068L26.0855 3.75073L26.0855 3.75071L25.6492 3.14068ZM28.649 3.10785L29.0274 2.46026L29.0273 2.46026L28.649 3.10785ZM26.8748 9.90305L27.3069 10.5161L27.3069 10.5161L26.8748 9.90305ZM23.4582 9.90305L23.0261 10.5161L23.0261 10.5161L23.4582 9.90305ZM17.2034 1.93357C16.9703 1.9221 16.7358 1.91629 16.4998 1.91629V3.41629C16.7111 3.41629 16.9211 3.4215 17.1296 3.43176L17.2034 1.93357ZM16.4998 1.91629C8.72182 1.91629 2.4165 8.22161 2.4165 15.9996H3.9165C3.9165 9.05004 9.55025 3.41629 16.4998 3.41629V1.91629ZM2.4165 15.9996C2.4165 23.7776 8.72182 30.083 16.4998 30.083V28.583C9.55025 28.583 3.9165 22.9492 3.9165 15.9996H2.4165ZM16.4998 30.083C24.2778 30.083 30.5832 23.7776 30.5832 15.9996H29.0832C29.0832 22.9491 23.4494 28.583 16.4998 28.583V30.083ZM30.5832 15.9996C30.5832 14.7851 30.4292 13.6053 30.1395 12.4794L28.6868 12.8532C28.9454 13.858 29.0832 14.9123 29.0832 15.9996H30.5832ZM10.5668 20.45C11.9185 22.2497 14.073 23.4163 16.4998 23.4163V21.9163C14.5648 21.9163 12.8468 20.988 11.7662 19.5492L10.5668 20.45ZM16.4998 23.4163C18.9267 23.4163 21.0812 22.2497 22.4329 20.45L21.2335 19.5492C20.1529 20.988 18.4349 21.9163 16.4998 21.9163V23.4163ZM13.8332 11.9163H12.1093V13.4163H13.8332V11.9163ZM12.1093 11.9163C11.3067 11.9163 10.537 12.2351 9.96951 12.8026L11.0302 13.8633C11.3164 13.5771 11.7046 13.4163 12.1093 13.4163V11.9163ZM19.1665 13.4163H20.8904V11.9163H19.1665V13.4163ZM20.8904 13.4163C21.2951 13.4163 21.6834 13.5771 21.9695 13.8633L23.0302 12.8027C22.4627 12.2351 21.6928 11.9163 20.8904 11.9163V13.4163ZM22.0623 3.75545C23.0247 3.19323 23.7982 3.42937 24.2475 3.75071L25.1201 2.53065C24.2572 1.91343 22.8462 1.56034 21.3057 2.46026L22.0623 3.75545ZM24.2476 3.75073C24.3731 3.84054 24.4972 3.92978 24.5995 3.99354C24.652 4.02629 24.7211 4.06663 24.799 4.10018C24.8719 4.13155 25.0025 4.17932 25.1665 4.17932V2.67932C25.2319 2.67932 25.2844 2.68915 25.3195 2.69811C25.3545 2.70704 25.3795 2.717 25.392 2.72238C25.4141 2.73188 25.4179 2.73614 25.3933 2.72079C25.3711 2.70695 25.339 2.68551 25.291 2.65202C25.2435 2.61888 25.1885 2.57952 25.1201 2.53063L24.2476 3.75073ZM25.1665 4.17932C25.3305 4.17932 25.4611 4.13155 25.534 4.10018C25.612 4.06663 25.681 4.02629 25.7335 3.99354C25.8358 3.92978 25.9599 3.84054 26.0855 3.75073L25.2129 2.53063C25.1445 2.57952 25.0895 2.61888 25.042 2.65202C24.9941 2.68551 24.9619 2.70695 24.9397 2.72079C24.9151 2.73614 24.9189 2.73188 24.941 2.72238C24.9535 2.717 24.9785 2.70704 25.0135 2.69811C25.0486 2.68915 25.1011 2.67932 25.1665 2.67932V4.17932ZM26.0855 3.75071C26.5348 3.42937 27.3083 3.19323 28.2707 3.75545L29.0273 2.46026C27.4868 1.56034 26.0758 1.91343 25.2129 2.53065L26.0855 3.75071ZM28.2707 3.75545C28.7892 4.05831 29.1955 4.76706 29.0557 5.75925C28.9169 6.74493 28.2183 8.03838 26.4427 9.29005L27.3069 10.5161C29.3196 9.09729 30.3292 7.47287 30.5411 5.96842C30.752 4.4705 30.1513 3.11687 29.0274 2.46026L28.2707 3.75545ZM26.4427 9.29004C25.6891 9.82123 25.5181 9.91601 25.1665 9.91601V11.416C26.0667 11.416 26.6173 11.0022 27.3069 10.5161L26.4427 9.29004ZM25.1665 9.91601C24.8149 9.91601 24.6439 9.82123 23.8903 9.29004L23.0261 10.5161C23.7157 11.0022 24.2663 11.416 25.1665 11.416V9.91601ZM23.8904 9.29005C22.1147 8.03838 21.4161 6.74493 21.2773 5.75925C21.1376 4.76706 21.5439 4.05831 22.0623 3.75545L21.3057 2.46026C20.1817 3.11687 19.581 4.4705 19.7919 5.96842C20.0038 7.47287 21.0135 9.09729 23.0261 10.5161L23.8904 9.29005Z" fill="white"/>
    </symbol>


</svg>